<?xml version="1.0" encoding="UTF-8" standalone="no" ?>
<svg id="Capa_1"
     enable-background="new 0 0 510 510"
     height="456"
     viewBox="0 0 456 456"
     width="456"
     version="1.1"
     xmlns:xlink="http://www.w3.org/1999/xlink"
     xmlns="http://www.w3.org/2000/svg"
     xmlns:svg="http://www.w3.org/2000/svg"
     xmlns:rdf="http://www.w3.org/1999/02/22-rdf-syntax-ns#"
     xmlns:cc="http://creativecommons.org/ns#"
     xmlns:dc="http://purl.org/dc/elements/1.1/">
    <metadata id="metadata112">
        <rdf:RDF>
            <cc:Work rdf:about="">
                <dc:format>image/svg+xml</dc:format>
                <dc:type rdf:resource="http://purl.org/dc/dcmitype/StillImage" />
            </cc:Work>
        </rdf:RDF>
    </metadata>
    <defs id="defs110" />
    <linearGradient id="SVGID_1_"
                    gradientUnits="userSpaceOnUse"
                    x1="242.802"
                    x2="259.272"
                    y1="251.33501"
                    y2="351.02399">
        <stop offset="0"
              stop-color="#f8f6fb"
              id="stop2" />
        <stop offset="1"
              stop-color="#efdcfb"
              id="stop4" />
    </linearGradient>
    <linearGradient id="SVGID_2_"
                    gradientUnits="userSpaceOnUse"
                    x1="326.56799"
                    x2="280.82999"
                    y1="463.353"
                    y2="264.30801">
        <stop offset="0"
              stop-color="#efdcfb"
              stop-opacity="0"
              id="stop7" />
        <stop offset=".4856"
              stop-color="#baaad6"
              stop-opacity=".486"
              id="stop9" />
        <stop offset="1"
              stop-color="#8679b2"
              id="stop11" />
    </linearGradient>
    <linearGradient id="lg1">
        <stop offset="0"
              stop-color="#fcb37e"
              id="stop14" />
        <stop offset=".1822"
              stop-color="#f8b07b"
              id="stop16" />
        <stop offset=".3733"
              stop-color="#eba774"
              id="stop18" />
        <stop offset=".5686"
              stop-color="#d69867"
              id="stop20" />
        <stop offset=".7666"
              stop-color="#b98255"
              id="stop22" />
        <stop offset=".965"
              stop-color="#93673e"
              id="stop24" />
        <stop offset="1"
              stop-color="#8c6239"
              id="stop26" />
    </linearGradient>
    <linearGradient id="SVGID_3_"
                    gradientUnits="userSpaceOnUse"
                    x1="229.798"
                    x2="253.993"
                    xlink:href="#lg1"
                    y1="125.708"
                    y2="272.15399" />
    <linearGradient id="lg2">
        <stop offset="0"
              stop-color="#8c6239"
              stop-opacity="0"
              id="stop30" />
        <stop offset="1"
              stop-color="#8c6239"
              id="stop32" />
    </linearGradient>
    <linearGradient id="SVGID_4_"
                    gradientUnits="userSpaceOnUse"
                    x1="230.188"
                    x2="253.90199"
                    xlink:href="#lg2"
                    y1="126.753"
                    y2="270.285" />
    <linearGradient id="lg3">
        <stop offset="0"
              stop-color="#92f37f"
              id="stop36" />
        <stop offset="1"
              stop-color="#4ab272"
              id="stop38" />
    </linearGradient>
    <linearGradient id="SVGID_5_"
                    gradientTransform="matrix(0.707,0.707,-0.707,0.707,439.178,-307.747)"
                    gradientUnits="userSpaceOnUse"
                    x1="190.929"
                    x2="239.72301"
                    xlink:href="#lg3"
                    y1="737.88"
                    y2="754.85199" />
    <linearGradient id="SVGID_6_"
                    gradientTransform="matrix(-0.707,0.707,0.707,0.707,1380.822,-307.747)"
                    gradientUnits="userSpaceOnUse"
                    x1="1117.239"
                    x2="1166.033"
                    xlink:href="#lg3"
                    y1="-188.42999"
                    y2="-171.45799" />
    <linearGradient id="SVGID_7_"
                    gradientUnits="userSpaceOnUse"
                    x1="247.06"
                    x2="267.13"
                    xlink:href="#lg1"
                    y1="268.918"
                    y2="360.00601" />
    <linearGradient id="SVGID_8_"
                    gradientUnits="userSpaceOnUse"
                    x1="485.86401"
                    x2="280.19101"
                    xlink:href="#lg2"
                    y1="411.82101"
                    y2="282.44601" />
    <linearGradient id="SVGID_9_"
                    gradientUnits="userSpaceOnUse"
                    x1="175.267"
                    x2="313.08301"
                    xlink:href="#lg3"
                    y1="186.476"
                    y2="353.23401" />
    <linearGradient id="SVGID_10_"
                    gradientUnits="userSpaceOnUse"
                    x1="241.40199"
                    x2="284.72198"
                    y1="394.62601"
                    y2="235.08299">
        <stop offset="0"
              stop-color="#4ab272"
              stop-opacity="0"
              id="stop46" />
        <stop offset="1"
              stop-color="#009245"
              id="stop48" />
    </linearGradient>
    <linearGradient id="lg4">
        <stop offset="0"
              stop-color="#8a7889"
              id="stop51" />
        <stop offset="1"
              stop-color="#6e566e"
              id="stop53" />
    </linearGradient>
    <linearGradient id="SVGID_11_"
                    gradientUnits="userSpaceOnUse"
                    x1="156.325"
                    x2="189.263"
                    xlink:href="#lg4"
                    y1="261.48999"
                    y2="294.42801" />
    <linearGradient id="lg5">
        <stop offset="0"
              stop-color="#6e566e"
              stop-opacity="0"
              id="stop57" />
        <stop offset=".0471"
              stop-color="#6e566e"
              stop-opacity=".047"
              id="stop59" />
        <stop offset="1"
              stop-color="#6e566e"
              id="stop61" />
    </linearGradient>
    <linearGradient id="SVGID_12_"
                    gradientUnits="userSpaceOnUse"
                    x1="166.72301"
                    x2="201.67999"
                    xlink:href="#lg5"
                    y1="280.75201"
                    y2="215.737" />
    <linearGradient id="SVGID_13_"
                    gradientUnits="userSpaceOnUse"
                    x1="334.64499"
                    x2="367.582"
                    xlink:href="#lg4"
                    y1="261.48999"
                    y2="294.42801" />
    <linearGradient id="SVGID_14_"
                    gradientUnits="userSpaceOnUse"
                    x1="345.043"
                    x2="380"
                    xlink:href="#lg5"
                    y1="280.75201"
                    y2="215.737" />
    <g id="g1094"
       transform="matrix(0.65789473,0,0,0.65789473,442.36313,58.170716)"
       style="stroke-width:1.52001">
        <g id="g1024"
           transform="matrix(0.91557647,0,0,0.91557647,-648.10248,19.394075)"
           style="stroke-width:1.66017">
            <g id="g2461"
               transform="translate(-526.58694,-0.04716983)"
               style="stroke-width:1.66017">
                <g id="g772"
                   style="stroke-width:1.66017">
                    <g id="g15179">
                        <rect style="stroke-width:1.52001;fill:none;stroke:none"
                              id="rect960"
                              width="456"
                              height="456"
                              x="-553.83197"
                              y="30.140512"
                              ry="130.57458"
                              rx="0"
                              transform="matrix(1.0922081,0,0,1.0922081,1234.4497,-21.135195)" />
                        <g transform="matrix(0.97656118,0,0,1.0438354,629.55029,-34.088307)"
                           id="g105"
                           style="stroke-width:1.66017">
                            <path style="fill:url(#SVGID_1_);stroke-width:1.66017"
                                  id="path67"
                                  fill="url(#SVGID_1_)"
                                  d="m 484.219,325.165 c 0,110.023 -458.438,110.023 -458.438,0 0,-110.023 458.438,-110.023 458.438,0 z" />
                            <path style="fill:url(#SVGID_2_);stroke-width:1.66017"
                                  id="path69"
                                  fill="url(#SVGID_2_)"
                                  d="m 484.219,325.165 c 0,-80.08 -240.857,-101.871 -373.049,-65.379 l -4.939,52.736 c -2.374,21.081 2.776,41.208 17.587,54.731 l 33.344,33.344 c 135.467,20.836 327.057,-4.305 327.057,-75.432 z" />
                            <path style="fill:url(#SVGID_3_);stroke-width:1.66017"
                                  id="path71"
                                  fill="url(#SVGID_3_)"
                                  d="m 484.219,282.863 c 0,99.712 -458.438,99.712 -458.438,0 0,-99.712 102.625,-180.545 229.219,-180.545 126.594,0 229.219,80.833 229.219,180.545 z" />
                            <path style="fill:url(#SVGID_4_);stroke-width:1.66017"
                                  id="path73"
                                  fill="url(#SVGID_4_)"
                                  d="m 432.555,282.863 c 0,99.712 -355.11,99.712 -355.11,0 0,-99.712 79.494,-180.545 177.555,-180.545 98.061,0 177.555,80.833 177.555,180.545 z" />
                            <g id="g79"
                               style="stroke-width:1.66017">
                                <path style="fill:url(#SVGID_5_);stroke-width:1.66017"
                                      id="path75"
                                      fill="url(#SVGID_5_)"
                                      d="m 112.755,340.587 c -18.538,-20.022 -48.594,-20.022 -67.132,0 l -14.18,15.315 c -7.115,7.684 -16.404,12.362 -25.741,12.961 -4.66,0.299 -7.481,6.587 -4.433,9.879 l 9.314,10.06 c 26.065,28.151 71.808,24.388 102.171,-8.405 10.179,-10.992 10.179,-28.816 10e-4,-39.81 z" />
                                <path style="fill:url(#SVGID_6_);stroke-width:1.66017"
                                      id="path77"
                                      fill="url(#SVGID_6_)"
                                      d="m 397.245,340.587 c 18.538,-20.022 48.594,-20.022 67.132,0 l 14.18,15.315 c 7.115,7.684 16.404,12.362 25.741,12.961 4.66,0.299 7.481,6.587 4.433,9.879 l -9.314,10.06 c -26.065,28.151 -71.808,24.388 -102.171,-8.405 -10.18,-10.992 -10.18,-28.816 -10e-4,-39.81 z" />
                            </g>
                            <path style="fill:url(#SVGID_7_);stroke-width:1.66017"
                                  id="path81"
                                  fill="url(#SVGID_7_)"
                                  d="m 0,307.103 c 0,15.885 14.146,29.327 33.121,31.426 53.631,5.934 133.133,9.693 221.879,9.693 88.746,0 168.248,-3.759 221.879,-9.693 18.975,-2.1 33.121,-15.542 33.121,-31.426 v -4.274 c 0,-19.016 -20.015,-33.757 -42.765,-31.475 -53.292,5.344 -128.665,8.677 -212.235,8.677 -83.57,0 -158.943,-3.333 -212.235,-8.677 C 20.015,269.072 0,283.813 0,302.829 Z" />
                            <path style="fill:url(#SVGID_8_);stroke-width:1.66017"
                                  id="path83"
                                  fill="url(#SVGID_8_)"
                                  d="m 387.422,345.212 c 34.259,-1.658 64.633,-3.937 89.457,-6.684 15.581,-1.724 27.899,-11.098 31.809,-23.19 l -148.51,-148.51 c -26.662,-27.752 -64.103,-41.833 -105.177,-41.833 0,0 -134.591,52.745 -142.895,126.495 l -6.873,61.033 c -1.261,11.196 -1.529,22.11 2.568,31.921 4.843,0.269 9.763,0.526 14.778,0.769 77.923,16.577 186.919,16.577 264.843,-0.001 z" />
                            <g id="g103"
                               style="stroke-width:1.66017">
                                <path style="fill:url(#SVGID_9_);stroke-width:1.66017"
                                      id="path85"
                                      fill="url(#SVGID_9_)"
                                      d="m 359.872,381.764 c -68.644,18.852 -141.1,18.852 -209.744,0 C 119.582,373.375 99.687,344 103.232,312.522 l 6.873,-61.033 C 118.41,177.74 180.785,121.994 255,121.994 c 74.216,0 136.591,55.745 144.895,129.495 l 6.873,61.033 c 3.545,31.478 -16.35,60.853 -46.896,69.242 z" />
                                <path style="fill:url(#SVGID_10_);stroke-width:1.66017"
                                      id="path87"
                                      fill="url(#SVGID_10_)"
                                      d="m 398.443,345.363 c -93.891,18.852 -192.996,18.852 -286.887,0 -1.259,-0.253 -2.503,-0.527 -3.736,-0.817 7.431,17.736 22.659,31.822 42.307,37.218 68.644,18.852 141.1,18.852 209.744,0 19.648,-5.396 34.876,-19.482 42.307,-37.218 -1.231,0.291 -2.476,0.565 -3.735,0.817 z" />
                                <g id="g101"
                                   style="stroke-width:1.66017">
                                    <g id="g93"
                                       style="stroke-width:1.66017">
                                        <path style="fill:url(#SVGID_11_);stroke-width:1.66017"
                                              id="path89"
                                              fill="url(#SVGID_11_)"
                                              d="m 191.271,271.005 c 0,14.045 -11.386,25.431 -25.431,25.431 -14.045,0 -25.431,-11.386 -25.431,-25.431 0,-14.046 11.386,-25.432 25.431,-25.432 14.045,0 25.431,11.386 25.431,25.432 z" />
                                        <path style="fill:url(#SVGID_12_);stroke-width:1.66017"
                                              id="path91"
                                              fill="url(#SVGID_12_)"
                                              d="m 177.216,248.255 c 1.715,3.423 2.682,7.287 2.682,11.376 0,14.046 -11.386,25.432 -25.431,25.432 -4.09,0 -7.953,-0.967 -11.376,-2.682 4.175,8.334 12.793,14.055 22.749,14.055 14.045,0 25.431,-11.386 25.431,-25.431 0,-9.956 -5.722,-18.574 -14.055,-22.75 z" />
                                    </g>
                                    <g id="g99"
                                       style="stroke-width:1.66017">
                                        <path style="fill:url(#SVGID_13_);stroke-width:1.66017"
                                              id="path95"
                                              fill="url(#SVGID_13_)"
                                              d="m 369.591,271.005 c 0,14.045 -11.386,25.431 -25.431,25.431 -14.045,0 -25.431,-11.386 -25.431,-25.431 0,-14.046 11.386,-25.432 25.431,-25.432 14.045,0 25.431,11.386 25.431,25.432 z" />
                                        <path style="fill:url(#SVGID_14_);stroke-width:1.66017"
                                              id="path97"
                                              fill="url(#SVGID_14_)"
                                              d="m 355.536,248.255 c 1.715,3.423 2.682,7.287 2.682,11.376 0,14.046 -11.386,25.432 -25.431,25.432 -4.09,0 -7.953,-0.967 -11.376,-2.682 4.175,8.334 12.793,14.055 22.749,14.055 14.045,0 25.431,-11.386 25.431,-25.431 0,-9.956 -5.722,-18.574 -14.055,-22.75 z" />
                                    </g>
                                </g>
                            </g>
                        </g>
                        <text id="text999"
                              y="448.2785"
                              x="721.70404"
                              style="font-style:normal;font-weight:normal;font-size:61.9792px;line-height:1.25;font-family:sans-serif;letter-spacing:0px;word-spacing:0px;fill:#00ffff;fill-opacity:1;stroke:none;stroke-width:1.65365"
                              xml:space="preserve"><tspan style="font-style:normal;font-variant:normal;font-weight:bold;font-stretch:normal;font-size:61.9792px;font-family:'Noto Sans';-inkscape-font-specification:'Noto Sans Bold';fill:#00ffff;fill-opacity:1;stroke-width:1.65365"
                                                          y="448.2785"
                                                          x="721.70404"
                                                          id="tspan997">GRAPHICS</tspan></text>
                    </g>
                </g>
            </g>
        </g>
    </g>
</svg>
